<svg width="30" height="34" viewBox="0 0 30 34" fill="none" xmlns="http://www.w3.org/2000/svg">
<path d="M9.71191 14.8816L7.30664 17.2869L11.8454 21.8256H11.845C12.1639 22.1441 12.5965 22.3234 13.0476 22.3234C13.4987 22.3234 13.9313 22.1442 14.2502 21.8256L22.7602 13.3157L20.3549 10.9104L13.0476 18.2173L9.71191 14.8816Z" fill="white"/>
<path d="M15.4277 1.71484V1.71387L26.7666 5.67676V5.67773L28.1006 6.14746V18.8291C28.0971 21.1014 27.4392 23.3249 26.2051 25.2324C25.0482 27.0207 23.4306 28.4613 21.5264 29.4043L21.1426 29.5859L15.5713 32.0938H15.5703L14.75 32.4639L13.9297 32.0938H13.9287L8.35742 29.5859C6.28737 28.6517 4.53062 27.1408 3.29688 25.2344C2.13961 23.4461 1.48823 21.3808 1.4082 19.2578L1.40039 18.833V6.15234L2.73438 5.68262L2.7334 5.68164L14.0781 1.71289L14.0771 1.71191L14.75 1.48047L15.4277 1.71484Z" stroke="white" stroke-width="2.8"/>
<path d="M9.71191 14.8816L7.30664 17.2869L11.8454 21.8256C12.1643 22.1441 12.5965 22.3234 13.0476 22.3234C13.4987 22.3234 13.9313 22.1442 14.2502 21.8256L22.7602 13.3157L20.3549 10.9104L13.0476 18.2173L9.71191 14.8816Z" fill="white"/>
</svg>
