<svg width="30" height="40" viewBox="0 0 30 40" fill="none" xmlns="http://www.w3.org/2000/svg">
<path d="M20.9463 4.29028H14.3007C13.0811 1.72457 10.5154 0 7.52889 0C3.36479 0 0 3.36494 0 7.52889C0 10.347 1.59839 12.8285 3.91151 14.1326V36.8454L7.06607 40L10.3048 36.7612L13.5014 40L16.6979 36.7612L19.8945 40L23.1332 36.7612L26.3298 40L29.4843 36.8454V12.8708L20.9463 4.29028ZM21.5774 7.90751L25.8677 12.1978L21.5774 12.1975V7.90751ZM3.86977 5.13142C3.86977 4.45838 4.41665 3.86952 5.13167 3.86952C5.80471 3.86952 6.39357 4.4164 6.39357 5.13142C6.39357 5.84642 5.84669 6.39332 5.13167 6.39332C4.41667 6.39332 3.86977 5.84644 3.86977 5.13142ZM4.92129 10.8098C4.75317 10.8098 4.54281 10.7256 4.41665 10.5994C4.12208 10.3049 4.12208 9.84247 4.41665 9.5479L9.50616 4.41648C9.80073 4.12191 10.2631 4.12191 10.5577 4.41648C10.8523 4.71105 10.8522 5.17342 10.5577 5.468L5.46817 10.5994C5.29976 10.7256 5.13165 10.8098 4.92129 10.8098ZM11.1462 9.88445C11.1462 10.5994 10.5993 11.1463 9.88432 11.1463C9.21128 11.1463 8.62242 10.5995 8.62242 9.88445C8.62242 9.2114 9.1693 8.66483 9.88432 8.66483C10.5574 8.66454 11.1462 9.21142 11.1462 9.88445ZM27.3817 35.9201L26.3302 36.9716L23.0914 33.7751L19.8949 36.9716L16.6983 33.7751L13.4596 36.9716L10.263 33.7751L7.02426 36.9716L5.97274 35.9201V14.8897C6.47738 14.9739 6.98227 15.0578 7.48693 15.0578C11.651 15.0578 15.0158 11.6929 15.0158 7.52891C15.0158 7.15043 14.9739 6.77197 14.9316 6.39319H19.4742V14.3006H27.3816L27.3817 35.9201Z" fill="white"/>
<path d="M9.84229 27.9705H23.5121V30.0735H9.84229V27.9705Z" fill="white"/>
<path d="M9.84229 23.1335H23.5121V25.2365H9.84229V23.1335Z" fill="white"/>
<path d="M9.84229 18.3385H23.5121V20.4415H9.84229V18.3385Z" fill="white"/>
</svg>
